Coordinates
version=1
nRows=43
nColumns=12
inDegrees=yes

Units are S.I. units (second, meters, Newtons, ...)
Angles are in degrees

endheader
time	SC_y	SC_z	SC_x	AC_y	AC_z	AC_x	GH_y	GH_z	GH_yy	EL_x	PS_y
       0.0              -26.92          18.44          23.76          37.25         -3.219          11.88          161.3         -19.62         -98.29          138.6          98.05
   0.04629              -26.92          18.44          23.76          37.26         -3.218          11.88          161.2         -19.62         -98.27          138.6          98.05
   0.09259              -26.93          18.44          23.76          37.26         -3.217          11.88          161.2         -19.62         -98.25          138.6          98.05
    0.1389              -26.93          18.44          23.76          37.26         -3.215          11.88          161.2         -19.62         -98.22          138.6          98.05
    0.1852              -26.93          18.44          23.76          37.26         -3.213          11.88          161.1         -19.61          -98.2          138.6          98.04
    0.2315              -26.93          18.43          23.76          37.27         -3.212          11.88          161.1         -19.61         -98.17          138.6          98.04
    0.2778              -26.94          18.43          23.75          37.27          -3.21          11.88          161.1          -19.6         -98.15          138.6          98.04
    0.3241              -26.94          18.43          23.75          37.27         -3.208          11.88          161.0          -19.6         -98.12          138.6          98.04
    0.3704              -26.94          18.43          23.75          37.27         -3.206          11.88          161.0          -19.6         -98.09          138.6          98.04
    0.4166              -26.94          18.42          23.75          37.28         -3.203          11.88          160.9         -19.59         -98.05          138.6          98.04
    0.4629              -26.95          18.42          23.75          37.28         -3.201          11.88          160.9         -19.59         -98.02          138.6          98.03
    0.5092              -26.95          18.42          23.75          37.29         -3.198          11.88          160.8         -19.58         -97.98          138.6          98.03
    0.5555              -26.96          18.42          23.75          37.29         -3.195          11.88          160.7         -19.58         -97.94          138.6          98.03
    0.6018              -26.96          18.41          23.74          37.29         -3.192          11.88          160.7         -19.57         -97.89          138.6          98.03
    0.6481              -26.96          18.41          23.74           37.3         -3.189          11.88          160.6         -19.56         -97.84          138.6          98.02
    0.6944              -26.97           18.4          23.74           37.3         -3.185          11.88          160.5         -19.55         -97.79          138.6          98.02
    0.7407              -26.98           18.4          23.74          37.31         -3.181          11.88          160.4         -19.55         -97.73          138.6          98.02
     0.787              -26.98          18.39          23.73          37.32         -3.177          11.88          160.3         -19.54         -97.67          138.6          98.01
    0.8333              -26.99          18.39          23.73          37.32         -3.172          11.88          160.2         -19.53          -97.6          138.6          98.01
    0.8796               -27.0          18.38          23.73          37.33         -3.167          11.87          160.1         -19.52         -97.53          138.6           98.0
    0.9259               -27.0          18.38          23.72          37.34         -3.161          11.87          160.0         -19.51         -97.44          138.6           98.0
    0.9722              -27.01          18.37          23.72          37.35         -3.155          11.87          159.8         -19.49         -97.35          138.6          97.99
     1.018              -27.02          18.36          23.72          37.36         -3.148          11.87          159.7         -19.48         -97.25          138.6          97.99
     1.065              -27.03          18.36          23.71          37.37          -3.14          11.87          159.5         -19.46         -97.14          138.6          97.98
     1.111              -27.04          18.35          23.71          37.38         -3.132          11.87          159.3         -19.45         -97.02          138.6          97.97
     1.157              -27.06          18.34           23.7          37.39         -3.122          11.87          159.1         -19.43         -96.88          138.6          97.96
     1.204              -27.07          18.32           23.7          37.41         -3.112          11.87          158.8         -19.41         -96.73          138.6          97.96
      1.25              -27.09          18.31          23.69          37.43           -3.1          11.86          158.6         -19.38         -96.56          138.6          97.95
     1.296              -27.11           18.3          23.68          37.45         -3.086          11.86          158.3         -19.35         -96.36          138.6          97.93
     1.343              -27.13          18.28          23.67          37.47         -3.071          11.86          157.9         -19.32         -96.14          138.6          97.92
     1.389              -27.15          18.26          23.66          37.49         -3.053          11.86          157.5         -19.29         -95.89          138.6           97.9
     1.435              -27.18          18.24          23.65          37.52         -3.033          11.85          157.0         -19.25          -95.6          138.6          97.89
     1.481              -27.21          18.21          23.63          37.56          -3.01          11.85          156.5          -19.2         -95.26          138.5          97.87
     1.528              -27.25          18.18          23.62          37.59         -2.983          11.85          155.9         -19.15         -94.87          138.5          97.84
     1.574              -27.29          18.15           23.6          37.64         -2.951          11.84          155.2         -19.08         -94.41          138.5          97.82
      1.62              -27.35          18.11          23.58          37.69         -2.914          11.84          154.3         -19.01         -93.88          138.5          97.78
     1.667              -27.41          18.06          23.55          37.76          -2.87          11.83          153.3         -18.92         -93.24          138.5          97.75
     1.713              -27.48           18.0          23.52          37.83         -2.817          11.82          152.1         -18.81         -92.47          138.5           97.7
     1.759              -27.57          17.93          23.48          37.93         -2.752          11.81          150.7         -18.68         -91.54          138.4          97.64
     1.805              -27.68          17.85          23.43          38.04         -2.674           11.8          148.9         -18.52         -90.41          138.4          97.58
     1.852              -27.81          17.74          23.38          38.18         -2.577          11.79          146.7         -18.32         -89.02          138.4          97.49
     1.898              -27.98          17.61           23.3          38.35         -2.457          11.77          144.0         -18.08         -87.27          138.3          97.39
     1.944              -28.19          17.44          23.21          38.57         -2.305          11.75          140.5         -17.77         -85.08          138.2          97.26
